Patient4_TMGait_0pt7_02_left_03_EMG.mot
version=1
nRows=37
nColumns=33
inDegrees=no
endheader
time	1LAddLong	2LGlutMax	3LGlutMed	4LIliopsoas	5LSemiMemb	6LBicFemLong	7LRecFem	8LVastMed	9LVastLat	10LGasMed	11LTibAnt	12lTibPost	13LPeroneusLong	14LSol	15LExtDigLong	16LFlexDigLong	17RAddLong	18RGlutMax	19RGlutMed	20RIliopsoas	21RSemiMemb	22RBicFemLong	23RRecFem	24RVastMed	25RVastLat	26RGasMed	27RTibAnt	28RTibPost	29RPeroneusLong	30RSol	31RExtDigLong	32RFlexDigLong
3.415	0.000916	0.80124	0.00061	-0.001984	0.046387	-0.060577	0.84946	0.019226	-0.059052	-0.044403	0.064697	0.012512	0.061951	0.3949	-0.34317	-0.47989	-0.14038	1.2531	-0.043488	0.10452	-0.11704	-0.16434	0.7785	0.070648	0.02121	-0.00824	0.050354	-0.007172	-0.059357	0.070801	-0.000916	-0.005646
3.416	0.010681	0.90607	0.001831	-0.003357	0.022888	0.020905	0.58975	0.019989	-0.28259	-0.038147	-0.047302	0.022278	0.000763	0.1857	-0.30533	0.41641	-0.1265	1.2479	-0.091553	0.18509	-0.095367	-0.081177	0.81528	0.1326	0.010529	-0.012665	-0.28885	-0.008087	-0.084839	-0.006561	-0.001984	-0.006104
3.417	0.03067	1.0368	-0.055237	0.01297	0.075684	-0.04303	0.50674	0.008545	-0.43381	-0.081635	-0.085754	0.031281	0.021362	-0.075378	-0.18692	-0.38528	-0.082703	1.1926	-0.10101	0.10712	-0.057831	-0.055237	0.87936	0.15533	0.011292	-0.007019	0.34302	-0.005951	-0.14343	0.050201	0.012817	-0.002747
3.418	0.043335	1.1731	-0.084534	-0.001678	0.031281	-0.19592	0.42618	-0.007324	-0.56824	-0.080414	0.002136	0.042877	0.027313	-0.38483	-0.13702	0.27557	-0.00946	1.1337	-0.084686	0.10101	0.027618	-0.099792	0.90302	0.168	0.012054	0.004272	1.566	-0.003662	-0.24048	-0.051422	-0.000458	0.006714
3.419	0.033417	1.2573	-0.10819	0.002136	-0.016174	-0.19409	0.33829	-0.022125	-0.69687	-0.046082	0.011597	0.045471	-0.006714	-0.53451	0.097351	0.38757	0.024414	1.1716	-0.045319	0.032806	0.054474	-0.20401	0.97183	0.15259	0.020294	0.020905	1.6432	-0.001526	-0.099792	-0.070496	-0.002441	0.010681
3.42	0.019684	1.2552	0.021362	-0.001373	-0.01709	-0.18112	0.11078	-0.017853	-0.67642	-0.026245	0.11017	0.061188	-0.063477	-0.66757	-0.10635	0.39414	0.021362	1.0818	-0.09964	-0.078888	0.012817	-0.21179	1.0046	0.17487	0.009918	0.027771	1.0289	-0.000305	0.14374	-0.22873	0.001221	0.005341
3.421	0.026093	1.2297	-0.18875	0.000305	-0.018005	-0.1738	-0.14084	-0.007324	-0.51193	0.035706	0.2124	0.067902	-0.11459	-0.64789	0.13641	-0.82489	0.072784	0.99747	0.020294	-0.11459	0.011292	-0.18601	0.99747	0.12466	0.023651	0.033875	-0.44968	-0.003662	0.2655	-0.32516	-0.00351	0.009155
3.422	0.023804	1.2225	-0.24338	0.001831	-0.03067	-0.021362	-0.34149	0.009308	-0.40527	0.027313	0.23453	0.075836	-0.11932	-0.27588	-0.075531	1.2991	0.15335	0.81619	0.11688	0.006104	0.054016	-0.057526	0.93704	-0.006866	0.011597	0.031891	-1.0016	-0.00351	0.13962	-0.28122	-0.003662	0.007324
3.423	0.022583	1.2437	-0.10391	-0.015869	-0.035553	0.045929	-0.49972	0.00351	-0.39459	0.040741	0.074158	0.074615	-0.1355	0.53329	0.16815	-2.3026	0.21759	0.60181	0.078888	0.11124	0.046082	0.022125	0.89996	-0.068665	0.026398	0.021362	-0.82169	-0.005646	0.18555	-0.059509	-0.003204	-0.000458
3.424	0.021973	1.2555	-0.018005	0.014343	-0.04364	0.098419	-0.63324	0.001984	-0.4126	0.008087	-0.19577	0.08606	-0.096436	0.90729	0.29663	-0.68878	0.27741	0.50476	0.15915	0.13977	-0.047607	-0.11902	0.88348	-0.090332	0.040283	-0.000458	-0.33798	-0.00473	-0.049896	0.21118	0.000305	-0.003662
3.425	0.009918	1.2566	-0.19165	0.024719	-0.036316	0.11978	-0.67551	-0.004425	-0.36285	-0.020752	-0.34103	0.098419	-0.01297	0.74722	0.66864	2.1887	0.21057	0.28366	0.18051	-0.007019	-0.091248	-0.18646	0.80704	-0.20813	0.022888	-0.014954	-0.59097	-0.005035	-0.16159	0.30945	-0.004272	-0.005951
3.426	0.000458	1.2459	-0.16495	-0.043793	-0.054932	0.18616	-0.73898	0.007477	-0.26581	-0.00824	-0.38757	0.093536	0.14435	0.6398	0.072327	0.19257	0.14374	0.14252	-0.050507	-0.063629	-0.10315	-0.1294	0.83389	-0.26581	0.025635	-0.008545	-0.67917	-0.003662	-0.10727	0.28625	-0.007019	-0.008545
3.427	-0.003815	1.1972	-0.018158	-0.048981	-0.070648	0.25391	-0.74966	0.023651	-0.15854	0.036163	-0.2565	0.1062	0.22095	0.62836	-0.037384	-0.72098	0.076599	0.036316	0.008545	-0.12817	-0.094452	-0.11993	0.76157	-0.22385	0.002747	-0.00412	-0.4715	-0.008698	-0.039063	0.20996	-0.005341	-0.004272
3.428	-0.007477	1.2148	0.003967	-0.032349	-0.096741	0.30899	-0.78613	0.014343	-0.054321	0.06958	-0.024719	0.093536	0.12619	0.59784	-0.19577	0.29709	0.006409	-0.086212	0.56564	-0.090942	-0.072784	-0.092773	0.77713	-0.086823	0.039978	0.002441	-0.24139	-0.006714	-0.046387	0.28931	-0.001831	-0.009613
3.429	0.011749	1.3448	0.019226	-0.012207	-0.10284	0.41092	-0.7727	0.010071	-0.054474	0.072479	0.035553	0.098724	0.037384	0.26321	-0.38437	0.25681	-0.062561	-0.15671	0.72022	-0.055389	-0.066986	-0.059967	0.78857	-0.10864	0.024872	0.002136	-0.21545	-0.01358	-0.029144	0.3624	-0.003815	-0.004272
3.43	0.023041	1.6209	-0.025635	-0.000305	-0.068817	0.41	-0.71213	0.009766	-0.09903	0.027618	0.12848	0.10437	-0.030365	-0.45013	-0.31616	-0.086212	-0.12329	-0.14374	0.58487	-0.088196	-0.050812	0.052948	0.80475	0.001678	0.024109	-0.005188	-0.038757	-0.001984	-0.065613	0.33951	-0.002289	-0.007477
3.431	0.028229	1.7461	-0.024567	-0.032654	-0.04715	0.3125	-0.73669	0.008698	-0.1474	0.014038	0.10681	0.094452	-0.019073	-1.2912	-0.32074	0.074921	-0.15625	-0.24567	0.58701	-0.19623	-0.014496	0.11749	0.80307	0.1178	0.058289	-0.004425	0.27908	-0.004272	-0.14557	0.26138	-0.002136	-0.000458
3.432	0.029755	1.7081	-0.038605	-0.006256	-0.077667	0.23956	-0.7901	-0.009766	-0.12192	0.063629	0.24826	0.077667	-0.043945	-1.4723	-0.21545	0.020905	-0.13809	-0.24506	0.47745	-0.11765	-0.008545	0.061493	0.74905	0.15595	0.041504	-0.000916	0.33493	-0.000763	-0.13245	0.14481	-0.003357	0.000153
3.433	0.016785	1.637	0.17777	0.008087	-0.093842	0.11215	-0.73914	-0.014648	-0.099945	0.14526	-0.023193	0.025787	-0.046234	-1.2753	-0.076904	0.25207	-0.10346	-0.32013	0.019684	0.051727	-0.001678	-0.00412	0.76446	0.20493	0.034943	-0.00351	0.2655	0.001373	-0.22354	0.073547	-0.00061	-0.004883
3.434	0.018616	1.5253	0.23727	0.013885	-0.064392	0.012512	-0.73898	-0.013275	-0.058441	-0.054474	-0.14008	0.33279	-0.005798	-1.0237	-0.16449	-0.084839	-0.054169	-0.33386	-0.01297	-0.0914	-0.001678	-0.03067	0.84595	0.19028	0.024109	-0.005341	-0.094452	-0.001373	-0.22079	0.047455	-0.002594	-0.006866
3.435	0.028229	1.2651	0.11108	0.001984	-0.036774	-0.1709	-0.70435	-0.010376	-0.002747	-0.041351	0.021057	0.11917	0.037384	-0.50629	-0.14893	0.25787	-0.048676	-0.35828	0.18326	-0.20538	-0.004883	0.022736	0.82245	0.21606	0.005493	0.003357	-0.26337	0.001221	-0.10452	0.019531	0.000916	-0.010529
3.436	0.02594	1.0429	0.056305	-0.019226	-0.03479	-0.39703	-0.6308	-0.020447	0.030365	-0.24658	0.036163	0.11078	0.081482	-0.40771	0.072784	-1.6791	-0.028534	-0.40726	0.30868	-0.11704	0.018158	0.079498	0.83801	0.13412	-0.014343	0.004425	-0.14374	0.005646	-0.088196	-0.069427	-0.001678	-0.00824
3.437	0.034027	0.69565	-0.010071	-0.006561	-0.028839	-0.24674	-0.57526	0.023804	0.006409	-0.28214	0.057526	0.006714	0.16357	-0.34622	0.017395	0.10971	-0.00351	-0.53284	0.38986	0.097961	0.031586	0.048676	0.86136	0.10941	-0.023193	0.016479	0.53451	0.003357	-0.02121	-0.20447	0.001221	-0.011749
3.438	0.018616	0.53223	-0.056305	-0.010834	-0.045013	-0.074158	-0.51544	0.008087	-0.021362	-0.22873	0.18082	0.046387	0.030518	-0.37735	0.5191	0.8226	0.066071	-0.49835	0.6308	0.31479	-0.02243	0.019989	0.84106	0.040741	-0.025024	0.024414	-0.25528	0.00946	0.18875	-0.22507	0.000916	-0.007172
3.439	0.005188	0.39917	-0.22263	-0.014038	-0.030518	0.000305	-0.41611	-0.019379	-0.037689	-0.13443	0.29083	0.21973	-0.075378	-0.071259	1.1763	-0.1648	0.060425	-0.50384	0.62225	0.36621	-0.063171	0.000305	0.85815	-0.050354	-0.024872	0.020142	-0.79392	0.004578	0.24658	-0.16602	-0.000458	-0.013885
3.44	0.007782	0.103	-0.26459	-0.016632	0.006714	0.10376	-0.35187	-0.013428	-0.025482	0.024109	0.59525	0.043488	-0.02594	0.12482	-0.14175	0.67871	0.00824	-0.49606	0.80124	0.38452	-0.066833	-0.010376	0.84747	-0.10605	-0.033417	0.003815	-0.033875	0.005341	0.020294	-0.11185	-0.002899	-0.022583
3.441	0.004272	-0.25848	-0.31769	-0.011292	-0.009003	0.2002	-0.34119	-0.009155	0.013275	0.054626	0.50201	-0.057831	0.10559	0.52704	0.55145	-0.1506	-0.085907	-0.56824	0.86472	0.36423	-0.10422	-0.050507	0.84625	-0.036621	-0.030365	0.003204	0.61005	-0.000763	-0.13641	-0.036621	-0.005646	-0.024719
3.442	0.007629	-0.5722	-0.24109	-0.003357	-0.026398	0.21027	-0.38284	0.000153	0.070801	0.036011	0.27054	-0.10681	0.15137	0.42145	-0.088501	-0.19974	-0.18707	-0.63217	0.55145	0.44617	-0.14465	0.041962	0.74143	0.10086	-0.027924	0.003815	0.44159	0.000305	-0.12573	-0.014191	-0.007629	-0.018463
3.443	0.006104	-0.69305	-0.080719	-0.014496	-0.040741	-0.023041	-0.41733	0.002747	0.22614	0.080414	-0.022125	-0.11826	0.11658	0.058289	-0.242	-0.32501	-0.20966	-0.73776	0.52628	0.50201	-0.16541	0.062103	0.77545	0.19486	-0.012207	0.001831	0.18188	0.002136	-0.068665	0.10315	-0.003967	-0.020142
3.444	-0.001984	-0.63797	-0.1207	-0.022583	-0.048828	0.11475	-0.42526	-0.003052	0.20935	0.085602	-0.48737	-0.042725	-0.050201	-0.32211	-0.06012	-1.8387	-0.21332	-0.81986	0.48843	0.45593	-0.14832	0.057678	0.83542	0.12665	-0.011292	0.006104	0.15137	0.000305	-0.000916	0.2388	-0.012512	-0.02243
3.445	0.010223	-0.47241	-0.040741	-0.025024	-0.035553	0.23209	-0.41946	0.000916	0.20905	0.12314	-0.43732	-0.029755	-0.17471	-0.35919	-0.327	0.22568	-0.13336	-0.91278	0.3595	0.36941	-0.10727	0.177	0.8844	0.035858	-0.002289	-0.001373	0.08728	0.003052	-0.017242	0.21011	-0.005341	-0.021057
3.446	0.019073	-0.41855	-0.084076	0.01236	-0.031433	0.28153	-0.45776	-0.014954	0.2594	0.12589	-0.4129	-0.029755	-0.11841	-0.16495	-0.88913	1.2482	0.012054	-0.96069	0.57297	0.11566	-0.016937	0.23086	0.87402	0.051575	0.004425	-0.004578	-0.040741	0.003204	-0.06073	0.14084	-0.003357	-0.025177
3.447	0.008087	-0.43076	-0.015869	0.020752	-0.010681	0.28427	-0.35278	-0.013123	0.20584	0.11414	-0.09964	-0.039215	-0.039063	0.010834	-0.86304	0.7309	0.046539	-1.0347	0.62622	-0.21271	-0.02121	0.18326	0.84183	-0.025635	-0.012665	-0.003967	-0.040436	0.003204	-0.072937	0.089722	-0.002899	-0.019531
3.448	-0.015259	-0.48447	0.2301	0.00061	-0.020447	0.30624	-0.39169	-0.025635	0.15518	-0.024872	0.10773	-0.041351	0.07843	0.18036	-0.74875	-0.46875	0.063934	-1.0333	0.37872	-0.31418	-0.02655	0.088501	0.86151	-0.08667	-0.015564	-0.003052	0.23224	0.00061	-0.089417	0.071869	0.000153	-0.016785
3.449	-0.002441	-0.62683	0.061493	-0.025024	-0.022583	0.16953	-0.4718	-0.016174	0.14481	-0.20599	0.16815	-0.050201	0.11673	0.15305	-0.58777	-1.0478	0.026703	-1.0129	0.2211	-0.32745	-0.009308	0.074158	0.86639	-0.067596	-0.0177	-0.006714	0.31082	0.001373	-0.11749	-0.001526	-0.001678	-0.001831
3.45	-0.013885	-0.69427	0.021362	0.001526	-0.053864	0.027313	-0.36652	-0.026703	0.17929	0.015717	-0.005951	0.056763	0.010681	-0.004578	0.036774	0.46295	-0.014343	-0.9552	0.036316	-0.36377	-0.007172	0.15274	0.84473	-0.13657	-0.003967	0.006866	0.7663	0.007019	-0.02121	-0.11215	-0.005188	-0.018005
3.451	-0.019073	-0.66589	0.018616	-0.006104	-0.080872	0.02655	-0.3447	-0.03006	0.19455	0.20401	-0.10925	-0.023651	-0.10391	0.10208	0.22095	-0.76172	-0.087128	-0.88043	0.17899	-0.39566	-0.005798	0.20828	0.87357	-0.12589	-0.014191	0.009613	0.68268	0.009155	0.06958	-0.18692	-0.00412	-0.010071
